<?xml version="1.0" encoding="utf-8"?>
<!-- Generator: Adobe Illustrator 24.0.1, SVG Export Plug-In . SVG Version: 6.00 Build 0)  -->
<svg version="1.1"
	 id="svg5027" xmlns:cc="http://creativecommons.org/ns#" xmlns:dc="http://purl.org/dc/elements/1.1/" xmlns:inkscape="http://www.inkscape.org/namespaces/inkscape" xmlns:rdf="http://www.w3.org/1999/02/22-rdf-syntax-ns#" xmlns:sodipodi="http://sodipodi.sourceforge.net/DTD/sodipodi-0.dtd" xmlns:svg="http://www.w3.org/2000/svg"
	 xmlns="http://www.w3.org/2000/svg" xmlns:xlink="http://www.w3.org/1999/xlink" x="0px" y="0px" viewBox="0 0 288 288"
	 style="enable-background:new 0 0 288 288;" xml:space="preserve">
<style type="text/css">
	.st0{fill:#FFE555;}
	.st1{fill:none;stroke:#FFE555;stroke-width:21;stroke-linejoin:round;stroke-miterlimit:10;}
</style>
<sodipodi:namedview  bordercolor="#666666" borderopacity="1.0" fit-margin-bottom="2" fit-margin-left="2" fit-margin-right="2" fit-margin-top="2" id="base" inkscape:current-layer="layer1" inkscape:cx="194.97938" inkscape:cy="26.738051" inkscape:document-units="px" inkscape:pageopacity="0.0" inkscape:pageshadow="2" inkscape:window-height="1057" inkscape:window-maximized="1" inkscape:window-width="1920" inkscape:window-x="-8" inkscape:window-y="-8" inkscape:zoom="1" pagecolor="#ffffff" showgrid="false" units="pc">
	</sodipodi:namedview>
<g id="layer1" transform="translate(-77.12909,-99.75057)" inkscape:groupmode="layer" inkscape:label="Camada 1">
	<path id="path4642" inkscape:connector-curvature="0" class="st0" d="M221.1,123.8c-32.6,0-36.7,0.2-49.5,0.7
		c-12.8,0.6-21.5,2.6-29.1,5.5c-7.9,3.1-14.6,7.2-21.3,13.9c-6.7,6.7-10.8,13.4-13.8,21.2c-3,7.6-5,16.4-5.6,29.1
		c-0.6,12.8-0.7,16.9-0.7,49.5s0.2,36.7,0.7,49.5c0.6,12.8,2.6,21.5,5.6,29.1c3.1,7.9,7.1,14.6,13.8,21.2
		c6.7,6.7,13.4,10.8,21.3,13.9c7.6,3,16.3,5,29.1,5.6s16.9,0.7,49.5,0.7s36.7-0.2,49.5-0.7c12.8-0.6,21.5-2.6,29.1-5.6
		c7.9-3.1,14.6-7.2,21.2-13.9c6.7-6.7,10.8-13.4,13.8-21.2c3-7.6,5-16.3,5.6-29.1c0.6-12.8,0.7-16.9,0.7-49.5s-0.2-36.7-0.7-49.5
		c-0.6-12.8-2.6-21.5-5.6-29.1c-3.1-7.9-7.1-14.6-13.8-21.2c-6.7-6.7-13.4-10.8-21.2-13.9c-7.6-3-16.4-5-29.1-5.5
		C257.8,123.9,253.7,123.8,221.1,123.8L221.1,123.8z M221.1,145.4c32,0,35.8,0.2,48.5,0.7c11.7,0.5,18.1,2.5,22.3,4.2
		c5.6,2.2,9.6,4.8,13.8,9c4.2,4.2,6.8,8.2,9,13.8c1.6,4.2,3.6,10.6,4.2,22.3c0.6,12.7,0.7,16.4,0.7,48.5c0,32-0.1,35.8-0.7,48.5
		c-0.5,11.7-2.5,18-4.2,22.3c-2.2,5.6-4.8,9.6-9,13.8c-4.2,4.2-8.2,6.8-13.8,9c-4.2,1.6-10.6,3.6-22.3,4.1
		c-12.7,0.6-16.4,0.7-48.5,0.7s-35.8-0.2-48.5-0.7c-11.7-0.5-18-2.5-22.3-4.1c-5.6-2.2-9.6-4.8-13.8-9s-6.8-8.2-9-13.8
		c-1.6-4.2-3.6-10.6-4.1-22.3c-0.6-12.7-0.7-16.4-0.7-48.5c0-32,0.1-35.8,0.7-48.5c0.5-11.7,2.5-18.1,4.1-22.3
		c2.2-5.6,4.8-9.6,9-13.8s8.2-6.8,13.8-9c4.2-1.6,10.6-3.6,22.3-4.2C185.3,145.5,189.1,145.4,221.1,145.4z"/>
</g>
<polyline class="st1" points="246.7,71.4 144.4,165.5 41.3,70.6 "/>
<line class="st1" x1="173.9" y1="140.5" x2="247.4" y2="215.3"/>
<line class="st1" x1="42" y1="214.5" x2="114.8" y2="140.5"/>
</svg>
