<?xml version="1.0" encoding="utf-8"?>
<!-- Generator: Adobe Illustrator 24.0.1, SVG Export Plug-In . SVG Version: 6.00 Build 0)  -->
<svg version="1.1"
	 id="svg5027" xmlns:cc="http://creativecommons.org/ns#" xmlns:dc="http://purl.org/dc/elements/1.1/" xmlns:inkscape="http://www.inkscape.org/namespaces/inkscape" xmlns:rdf="http://www.w3.org/1999/02/22-rdf-syntax-ns#" xmlns:sodipodi="http://sodipodi.sourceforge.net/DTD/sodipodi-0.dtd" xmlns:svg="http://www.w3.org/2000/svg"
	 xmlns="http://www.w3.org/2000/svg" xmlns:xlink="http://www.w3.org/1999/xlink" x="0px" y="0px" viewBox="0 0 288 288"
	 style="enable-background:new 0 0 288 288;" xml:space="preserve">
<style type="text/css">
	.st0{fill:#FFE555;}
</style>
<sodipodi:namedview  bordercolor="#666666" borderopacity="1.0" fit-margin-bottom="2" fit-margin-left="2" fit-margin-right="2" fit-margin-top="2" id="base" inkscape:current-layer="layer1" inkscape:cx="194.97938" inkscape:cy="26.738051" inkscape:document-units="px" inkscape:pageopacity="0.0" inkscape:pageshadow="2" inkscape:window-height="1057" inkscape:window-maximized="1" inkscape:window-width="1920" inkscape:window-x="-8" inkscape:window-y="-8" inkscape:zoom="1" pagecolor="#ffffff" showgrid="false" units="pc">
	</sodipodi:namedview>
<path class="st0" d="M263.2,94.4c-0.6-12.8-2.6-21.5-5.6-29.1c-3.1-7.9-7.1-14.6-13.8-21.2c-6.7-6.7-13.4-10.8-21.2-13.9
	c-7.6-3-16.4-5-29.1-5.5C180.7,24.1,176.6,24,144,24c-32.6,0-36.7,0.2-49.5,0.7c-12.8,0.6-21.5,2.6-29.1,5.5
	c-7.9,3.1-14.6,7.2-21.3,13.9S33.3,57.5,30.3,65.3c-3,7.6-5,16.4-5.6,29.1c-0.6,12.8-0.7,16.9-0.7,49.5c0,32.6,0.2,36.7,0.7,49.5
	c0.6,12.8,2.6,21.5,5.6,29.1c3.1,7.9,7.1,14.6,13.8,21.2c6.7,6.7,13.4,10.8,21.3,13.9c7.6,3,16.3,5,29.1,5.6
	c12.8,0.6,16.9,0.7,49.5,0.7c32.6,0,36.7-0.2,49.5-0.7c12.8-0.6,21.5-2.6,29.1-5.6c7.9-3.1,14.6-7.2,21.2-13.9
	c6.7-6.7,10.8-13.4,13.8-21.2c3-7.6,5-16.3,5.6-29.1c0.6-12.8,0.7-16.9,0.7-49.5C263.9,111.3,263.7,107.2,263.2,94.4z M188.1,147.1
	l-75.5,43.6c-2.8,1.6-6.4-0.4-6.4-3.7V99.8c0-3.3,3.5-5.3,6.4-3.7l75.5,43.6C190.9,141.4,190.9,145.4,188.1,147.1z"/>
</svg>
